<svg width="69" height="36" viewBox="0 0 69 36" fill="none" xmlns="http://www.w3.org/2000/svg">
<g clip-path="url(#clip0_1682_18695)">
<path d="M43.646 8.57584C45.3674 8.57584 46.7656 7.17055 46.7656 5.4405C46.7656 3.71047 45.3674 2.30518 43.646 2.30518C41.9243 2.30518 40.5261 3.71047 40.5261 5.4405C40.5261 7.17646 41.9243 8.57584 43.646 8.57584Z" fill="white"/>
<path d="M11.5366 10.9199C12.553 11.6638 13.1229 12.7562 12.8115 14.315L10.8022 25.1144C10.5084 26.874 8.82219 28.0313 7.07136 27.7007C5.42037 27.3818 4.20417 25.823 4.5332 23.9512L5.67299 17.6983L4.96208 18.0231C3.64601 18.6194 2.09493 18.0231 1.50739 16.6886C0.91986 15.3542 1.50739 13.7895 2.82347 13.1872L8.12889 10.8195C9.38035 10.1877 10.5731 10.2703 11.5366 10.9199Z" fill="white"/>
<path d="M13.5667 10.4C14.2599 11.2325 15.074 12.2776 14.6745 14.7575L13.5876 20.6089L13.7873 25.3208C13.8285 26.9977 14.6275 27.7535 16.0376 27.7535H19.5745C20.6968 27.7535 21.1491 26.8914 21.6015 25.805L24.2983 19.1151L24.5745 25.5039C24.598 26.9209 25.3148 27.7594 26.6073 27.7594H30.6378C31.7835 27.7594 32.2594 27.0627 32.7647 25.8168L37.9116 13.0038C38.4698 11.6753 38.1466 10.394 36.7541 10.394H34.163C33.1995 10.394 32.5591 10.7247 32.1771 11.6458L28.7048 20.2311L28.3876 12.5728C28.3347 10.9432 27.5591 10.4 26.6602 10.4H24.0339C22.994 10.4 22.3888 10.8074 22.0657 11.6045L18.5757 20.237L18.2644 12.3898C18.2174 10.9195 17.7356 10.4 16.5605 10.4H14.2926C14.2497 10.4 13.5667 10.4 13.5667 10.4Z" fill="white"/>
<path d="M41.6594 27.754C43.2163 27.754 43.5984 26.5791 43.8216 25.2505L46.025 13.0989C46.4244 11.2389 45.9719 10.3887 44.2034 10.3887H42.1176C40.414 10.3887 39.8324 11.2271 39.6031 12.597L37.3292 25.4513C37.1063 26.7444 37.5702 27.754 38.8921 27.754H41.6594Z" fill="white"/>
<path fill-rule="evenodd" clip-rule="evenodd" d="M66.3671 11.522C67.272 12.3663 67.9358 13.4469 68.2413 14.6927C68.5 15.7437 68.5174 16.8774 68.3235 17.9638L66.7609 26.4133C66.6315 27.175 66.4554 27.9662 66.0205 28.6334C65.4446 29.5191 64.5341 29.9915 63.4 29.9915C63.4 29.9915 61.3671 30.0033 60.6916 29.9915C60.2039 29.9797 59.7634 29.8734 59.3579 29.7022C58.521 29.3493 57.6025 28.8323 57.4501 28.7466C57.1329 28.5695 56.8374 28.3677 56.6024 28.0902C56.2204 27.6415 55.8092 26.8502 55.9148 25.5808C55.9148 25.5749 55.8971 25.569 55.8971 25.5808L55.7444 26.4251C55.6154 27.1691 55.4332 27.9485 54.9983 28.6157C54.405 29.5191 53.4825 29.9974 52.325 29.9974H49.3699C48.794 29.9974 48.3358 29.8675 47.9654 29.7022C47.344 29.4265 46.7404 29.1026 46.1384 28.7869C45.7035 29.3597 44.9221 29.9974 43.565 29.9974C43.565 29.9974 41.491 30.0033 40.7978 29.9974C40.2158 29.9915 39.7693 29.8557 39.3993 29.6903C39.0055 29.5191 38.3477 29.1944 38.2067 29.1176C37.6692 28.8273 37.0809 28.5616 36.6791 28.0843C36.3676 27.7123 36.1621 27.2458 36.0681 26.7263C35.7309 27.5685 35.4053 28.4478 34.7579 29.1058C34.176 29.6903 33.4299 29.9915 32.5369 29.9915H28.5064C27.8425 29.9915 27.3313 29.8202 26.9142 29.6313C26.3795 29.3892 25.416 28.8991 24.9166 28.6216C24.6052 28.4504 24.4466 28.3028 24.2821 28.1375C23.8003 29.029 22.9954 29.9915 21.4736 29.9915H17.9367C17.2493 29.9915 16.6676 29.8321 16.1506 29.5959C15.5748 29.3361 14.529 28.8046 14.2998 28.6689C13.9523 28.4662 13.5979 28.2359 13.348 27.9131C13.1013 28.3028 12.7899 28.657 12.4315 28.9582C11.6324 29.6254 10.616 29.9915 9.57018 29.9915C9.28818 29.9915 9.00617 29.9679 8.72417 29.9147C8.31876 29.838 7.94861 29.6844 7.57846 29.5309C6.86755 29.2298 6.21539 28.8932 5.68073 28.5744C5.04619 28.1965 4.45277 27.7655 4.01801 27.1514C3.32471 26.1653 3.05445 24.9431 3.27184 23.7149C3.43635 22.7938 3.94751 20.0187 3.94751 20.0187C3.48923 19.812 2.65492 19.4459 1.99689 19.0385C1.20371 18.5484 0.686685 17.9993 0.340038 17.2081C-0.0829856 16.2456 -0.112362 15.1769 0.257785 14.1967C0.62793 13.2166 1.35647 12.4313 2.30828 12.0002C4.07008 11.2133 5.84434 10.4538 7.59608 9.6443C8.35987 9.29002 9.09428 9.08928 9.84046 9.08928H16.5795C17.0671 9.08928 17.4901 9.16603 17.8603 9.30184C18.442 9.52032 19.7228 10.1757 20.1517 10.4532C20.4327 10.636 20.6724 10.8621 20.8626 11.1382C21.3145 9.77591 22.6757 9.08928 24.0353 9.08928H26.6616C27.1081 9.08928 27.5487 9.20147 27.9776 9.3786C28.5887 9.63248 29.3113 9.99859 29.9165 10.3528C30.4277 10.654 30.6568 10.8489 30.9388 11.2622L30.9858 11.1382C31.544 9.7742 32.6133 9.08336 34.1643 9.08336H36.7376C37.6939 9.08336 38.5777 9.60702 39.4053 10.034C39.8869 9.56755 40.4862 9.27823 41.2266 9.15424C40.028 8.363 39.2288 6.99315 39.2288 5.44026C39.2288 2.99575 41.2089 1 43.6412 1C44.3465 1 45.028 1.16533 45.633 1.42513C46.3022 1.7092 46.9165 2.07613 47.5426 2.44072C48.9234 3.25555 49.9338 4.67267 49.9338 6.39089C49.9338 7.61902 49.4284 8.7409 48.6235 9.54393C49.1757 9.24279 49.8573 9.08928 50.6447 9.08928H52.0533C52.8388 9.08928 53.6055 9.08854 54.3462 9.40221C54.9886 9.66325 55.598 9.9908 56.2087 10.3174C57.4778 9.52623 58.8877 9.08928 60.1922 9.08928C61.4025 9.08928 62.2662 9.29593 63.1062 9.54984C64.3637 9.92771 65.4857 10.7012 66.3671 11.522ZM46.7668 5.44033C46.7668 7.17038 45.3686 8.57566 43.6472 8.57566C41.9255 8.57566 40.5274 7.17629 40.5274 5.44033C40.5274 3.71029 41.9255 2.305 43.6472 2.305C45.3686 2.305 46.7668 3.71029 46.7668 5.44033ZM11.5384 10.9198C12.5548 11.6638 13.1247 12.7561 12.8133 14.3149L10.804 25.1144C10.5102 26.874 8.82397 28.0312 7.07314 27.7006C5.42215 27.3818 4.20596 25.823 4.53499 23.9512L5.67478 17.6982L4.96387 18.023C3.64779 18.6193 2.09671 18.023 1.50918 16.6886C0.921648 15.3541 1.50918 13.7894 2.82526 13.1871L8.13067 10.8194C9.38214 10.1876 10.5748 10.2703 11.5384 10.9198ZM14.6758 14.7577C15.0753 12.2778 14.2612 11.2326 13.5679 10.4001C13.5679 10.4001 14.2509 10.4001 14.2939 10.4001H16.5618C17.7369 10.4001 18.2186 10.9197 18.2656 12.3899L18.577 20.2371L22.067 11.6046C22.3901 10.8075 22.9953 10.4001 24.0352 10.4001H26.6615C27.5604 10.4001 28.336 10.9433 28.3888 12.573L28.7061 20.2312L32.1784 11.646C32.5603 10.7248 33.2008 10.3942 34.1643 10.3942H36.7554C38.1478 10.3942 38.4711 11.6755 37.9129 13.004L32.766 25.8169C32.2607 27.0628 31.7848 27.7596 30.6391 27.7596H26.6086C25.3161 27.7596 24.5993 26.9211 24.5758 25.504L24.2996 19.1153L21.6028 25.8051C21.1504 26.8916 20.698 27.7536 19.5758 27.7536H16.0389C14.6288 27.7536 13.8298 26.9979 13.7886 25.321L13.5889 20.6091L14.6758 14.7577ZM41.6611 27.7536C43.2181 27.7536 43.6001 26.5787 43.8234 25.2501L46.0268 13.0985C46.4262 11.2385 45.9736 10.3883 44.2051 10.3883H42.1194C40.4157 10.3883 39.8341 11.2267 39.6048 12.5966L37.3309 25.4509C37.108 26.744 37.5719 27.7536 38.8939 27.7536H41.6611ZM58.3061 18.7669L57.2074 25.3977C56.9724 26.8857 57.6011 27.7536 58.782 27.7536H61.4905C63.03 27.7536 63.3649 26.5314 63.5822 25.2501L65.1508 16.7711C65.5034 15.0883 65.2096 12.9627 63.635 11.5456C62.6891 10.6894 61.9076 10.3883 60.2039 10.3883C57.9538 10.3883 55.3921 12.018 54.3519 14.1613L54.5578 13.0985C55.0334 10.9492 54.1286 10.3942 52.6188 10.3942H50.6681C48.788 10.3942 48.3769 11.4216 48.1536 12.5966L45.8563 25.3977C45.6624 26.2657 45.7801 27.7536 47.4777 27.7536H50.1982C51.7962 27.7536 52.1311 26.4665 52.3427 25.256L53.4471 19.1153C53.6998 17.7159 53.9114 17.025 54.3873 16.5172C55.1217 15.6729 56.567 15.3068 57.5894 16.1453C58.2355 16.6885 58.4588 17.5505 58.3061 18.7669Z" fill="black"/>
<path d="M57.2065 25.3981L58.3051 18.7673C58.4579 17.5509 58.2346 16.6888 57.5885 16.1456C56.566 15.3072 55.1208 15.6733 54.3864 16.5176C53.9104 17.0254 53.6989 17.7163 53.4462 19.1156L52.3418 25.2564C52.1302 26.4669 51.7953 27.754 50.1973 27.754H47.4768C45.7792 27.754 45.6615 26.2661 45.8554 25.3981L48.1527 12.597C48.3759 11.422 48.7871 10.3946 50.6672 10.3946H52.6179C54.1277 10.3946 55.0325 10.9496 54.5569 13.0989L54.351 14.1617C55.3912 12.0184 57.9528 10.3887 60.203 10.3887C61.9067 10.3887 62.6882 10.6898 63.6341 11.546C65.2087 12.9631 65.5025 15.0887 65.1499 16.7715L63.5813 25.2505C63.364 26.5318 63.0291 27.754 61.4895 27.754H58.7811C57.6002 27.754 56.9715 26.8861 57.2065 25.3981Z" fill="white"/>
</g>
<defs>
<clipPath id="clip0_1682_18695">
<rect width="69" height="29" fill="white" transform="translate(0 1)"/>
</clipPath>
</defs>
</svg>
