<svg width="60" height="60" viewBox="0 0 60 60" fill="none" xmlns="http://www.w3.org/2000/svg">
<g clip-path="url(#clip0_1939_2778)">
<g clip-path="url(#clip1_1939_2778)">
<path d="M0 26.88C0 17.4711 0 12.7667 1.83109 9.17296C3.44176 6.01184 6.01184 3.44176 9.17296 1.83109C12.7667 0 17.4711 0 26.88 0H33.12C42.5289 0 47.2333 0 50.827 1.83109C53.9882 3.44176 56.5582 6.01184 58.1689 9.17296C60 12.7667 60 17.4711 60 26.88V33.12C60 42.5289 60 47.2333 58.1689 50.827C56.5582 53.9882 53.9882 56.5582 50.827 58.1689C47.2333 60 42.5289 60 33.12 60H26.88C17.4711 60 12.7667 60 9.17296 58.1689C6.01184 56.5582 3.44176 53.9882 1.83109 50.827C0 47.2333 0 42.5289 0 33.12V26.88Z" fill="#415368"/>
<g clip-path="url(#clip2_1939_2778)">
<path d="M35.935 23.6934C37.0195 23.6934 37.9004 22.8124 37.9004 21.7278C37.9004 20.6432 37.0195 19.7622 35.935 19.7622C34.8503 19.7622 33.9694 20.6432 33.9694 21.7278C33.9694 22.8161 34.8503 23.6934 35.935 23.6934Z" fill="white"/>
<path d="M15.7055 25.1629C16.3459 25.6294 16.7049 26.3141 16.5088 27.2914L15.2428 34.0618C15.0577 35.1649 13.9953 35.8904 12.8922 35.6831C11.852 35.4832 11.0858 34.506 11.2931 33.3325L12.0112 29.4125L11.5633 29.6161C10.7341 29.9899 9.75689 29.6161 9.38672 28.7795C9.01655 27.9429 9.38672 26.9619 10.2159 26.5844L13.5585 25.1C14.347 24.7039 15.0984 24.7557 15.7055 25.1629Z" fill="white"/>
<path d="M16.984 24.8371C17.4208 25.3591 17.9337 26.0143 17.682 27.569L16.9972 31.2373L17.123 34.1913C17.149 35.2426 17.6524 35.7164 18.5408 35.7164H20.7692C21.4762 35.7164 21.7612 35.1759 22.0463 34.4948L23.7454 30.3008L23.9193 34.306C23.9342 35.1944 24.3858 35.7201 25.2001 35.7201H27.7395C28.4613 35.7201 28.7611 35.2833 29.0795 34.5022L32.3222 26.4696C32.6739 25.6367 32.4703 24.8334 31.5929 24.8334H29.9605C29.3534 24.8334 28.9499 25.0407 28.7093 25.6182L26.5216 31.0004L26.3217 26.1994C26.2884 25.1777 25.7998 24.8371 25.2334 24.8371H23.5788C22.9236 24.8371 22.5423 25.0925 22.3387 25.5923L20.1399 31.0041L19.9437 26.0846C19.9141 25.1629 19.6106 24.8371 18.8702 24.8371H17.4414C17.4143 24.8371 16.984 24.8371 16.984 24.8371Z" fill="white"/>
<path d="M34.6837 35.7164C35.6646 35.7164 35.9053 34.9797 36.046 34.1469L37.4342 26.5288C37.6858 25.3628 37.4007 24.8297 36.2865 24.8297H34.9724C33.899 24.8297 33.5326 25.3553 33.3881 26.2141L31.9555 34.2727C31.815 35.0834 32.1073 35.7164 32.9402 35.7164H34.6837Z" fill="white"/>
<path fill-rule="evenodd" clip-rule="evenodd" d="M50.2496 25.5405C50.8196 26.0698 51.2379 26.7472 51.4303 27.5283C51.5933 28.1872 51.6043 28.8979 51.4821 29.579L50.4976 34.8761C50.4161 35.3536 50.3052 35.8496 50.0312 36.2679C49.6683 36.8232 49.0947 37.1193 48.3802 37.1193C48.3802 37.1193 47.0994 37.1267 46.6738 37.1193C46.3665 37.1119 46.089 37.0453 45.8335 36.938C45.3062 36.7167 44.7275 36.3926 44.6315 36.3389C44.4316 36.2278 44.2455 36.1014 44.0974 35.9274C43.8567 35.6461 43.5977 35.15 43.6642 34.3542C43.6642 34.3505 43.6531 34.3468 43.6531 34.3542L43.5568 34.8835C43.4755 35.3499 43.3608 35.8386 43.0868 36.2568C42.713 36.8232 42.1318 37.123 41.4025 37.123H39.5407C39.1778 37.123 38.8891 37.0416 38.6558 36.938C38.2643 36.7651 37.884 36.5621 37.5047 36.3642C37.2307 36.7232 36.7384 37.123 35.8834 37.123C35.8834 37.123 34.5767 37.1267 34.1399 37.123C33.7733 37.1193 33.4919 37.0342 33.2588 36.9305C33.0107 36.8232 32.5963 36.6196 32.5074 36.5715C32.1688 36.3895 31.7982 36.2229 31.545 35.9237C31.3488 35.6905 31.2192 35.398 31.1601 35.0723C30.9476 35.6003 30.7425 36.1516 30.3346 36.5641C29.9679 36.9305 29.4979 37.1193 28.9353 37.1193H26.3959C25.9776 37.1193 25.6556 37.012 25.3927 36.8935C25.0559 36.7417 24.4488 36.4345 24.1342 36.2605C23.938 36.1532 23.838 36.0606 23.7344 35.957C23.4308 36.516 22.9237 37.1193 21.965 37.1193H19.7366C19.3035 37.1193 18.937 37.0194 18.6113 36.8713C18.2485 36.7084 17.5896 36.3753 17.4452 36.2902C17.2263 36.1631 17.003 36.0188 16.8455 35.8163C16.6901 36.0606 16.4939 36.2827 16.2681 36.4715C15.7647 36.8898 15.1243 37.1193 14.4654 37.1193C14.2877 37.1193 14.11 37.1045 13.9323 37.0712C13.6769 37.0231 13.4437 36.9268 13.2105 36.8306C12.7626 36.6418 12.3517 36.4308 12.0149 36.2309C11.6151 35.994 11.2412 35.7238 10.9673 35.3388C10.5305 34.7206 10.3602 33.9544 10.4972 33.1845C10.6008 32.607 10.9229 30.8672 10.9229 30.8672C10.6341 30.7376 10.1085 30.5081 9.6939 30.2527C9.19418 29.9455 8.86843 29.6012 8.65003 29.1052C8.38351 28.5018 8.365 27.8318 8.5982 27.2173C8.83141 26.6028 9.29042 26.1105 9.89009 25.8403C11.0001 25.347 12.1179 24.8708 13.2216 24.3633C13.7028 24.1412 14.1655 24.0154 14.6356 24.0154H18.8815C19.1887 24.0154 19.4552 24.0635 19.6884 24.1486C20.0549 24.2856 20.8619 24.6965 21.1321 24.8705C21.3092 24.985 21.4602 25.1268 21.58 25.2999C21.8647 24.4458 22.7223 24.0154 23.5789 24.0154H25.2336C25.5149 24.0154 25.7925 24.0857 26.0628 24.1967C26.4477 24.3559 26.903 24.5854 27.2843 24.8075C27.6063 24.9963 27.7507 25.1185 27.9284 25.3776L27.958 25.2999C28.3097 24.4448 28.9834 24.0117 29.9605 24.0117H31.5819C32.1844 24.0117 32.7412 24.34 33.2626 24.6076C33.566 24.3152 33.9436 24.1338 34.4101 24.0561C33.6549 23.5601 33.1514 22.7013 33.1514 21.7277C33.1514 20.1952 34.3989 18.9441 35.9314 18.9441C36.3757 18.9441 36.8051 19.0477 37.1863 19.2106C37.6079 19.3887 37.995 19.6187 38.3894 19.8473C39.2593 20.3581 39.8959 21.2465 39.8959 22.3237C39.8959 23.0936 39.5775 23.797 39.0704 24.3004C39.4183 24.1116 39.8477 24.0154 40.3439 24.0154H41.2313C41.7262 24.0154 42.2093 24.0149 42.6759 24.2116C43.0807 24.3752 43.4646 24.5805 43.8493 24.7853C44.6489 24.2893 45.5372 24.0154 46.3591 24.0154C47.1217 24.0154 47.6658 24.1449 48.1951 24.3041C48.9873 24.541 49.6942 25.0259 50.2496 25.5405ZM37.9006 21.7278C37.9006 22.8124 37.0197 23.6934 35.9352 23.6934C34.8504 23.6934 33.9695 22.8161 33.9695 21.7278C33.9695 20.6432 34.8504 19.7622 35.9352 19.7622C37.0197 19.7622 37.9006 20.6432 37.9006 21.7278ZM15.7054 25.163C16.3458 25.6294 16.7049 26.3142 16.5087 27.2914L15.2427 34.0618C15.0576 35.1649 13.9952 35.8904 12.8921 35.6831C11.852 35.4832 11.0857 34.506 11.293 33.3326L12.0111 29.4125L11.5632 29.6161C10.734 29.9899 9.7568 29.6161 9.38663 28.7795C9.01646 27.9429 9.38663 26.962 10.2158 26.5844L13.5584 25.1C14.3469 24.7039 15.0983 24.7558 15.7054 25.163ZM17.6821 27.569C17.9338 26.0143 17.4209 25.3591 16.9841 24.8372C16.9841 24.8372 17.4144 24.8372 17.4415 24.8372H18.8703C19.6107 24.8372 19.9142 25.1629 19.9438 26.0846L20.14 31.0042L22.3388 25.5923C22.5424 25.0926 22.9237 24.8372 23.5789 24.8372H25.2335C25.7999 24.8372 26.2885 25.1777 26.3218 26.1994L26.5217 31.0005L28.7094 25.6182C28.95 25.0407 29.3535 24.8334 29.9605 24.8334H31.593C32.4704 24.8334 32.674 25.6367 32.3223 26.4696L29.0796 34.5022C28.7612 35.2833 28.4614 35.7201 27.7396 35.7201H25.2002C24.3858 35.7201 23.9342 35.1944 23.9194 34.306L23.7454 30.3008L22.0464 34.4948C21.7613 35.176 21.4763 35.7164 20.7693 35.7164H18.5409C17.6525 35.7164 17.1491 35.2426 17.1231 34.1913L16.9973 31.2373L17.6821 27.569ZM34.6839 35.7164C35.6648 35.7164 35.9055 34.9798 36.0462 34.1469L37.4344 26.5288C37.686 25.3628 37.4009 24.8297 36.2867 24.8297H34.9726C33.8992 24.8297 33.5328 25.3554 33.3883 26.2142L31.9557 34.2727C31.8152 35.0834 32.1075 35.7164 32.9404 35.7164H34.6839ZM45.1708 30.0824L44.4786 34.2394C44.3305 35.1722 44.7267 35.7164 45.4707 35.7164H47.1771C48.147 35.7164 48.3581 34.9501 48.4949 34.1469L49.4832 28.8313C49.7054 27.7763 49.5203 26.4437 48.5282 25.5553C47.9322 25.0185 47.4399 24.8297 46.3665 24.8297C44.9488 24.8297 43.3349 25.8514 42.6795 27.1951L42.8092 26.5288C43.1089 25.1814 42.5388 24.8334 41.5876 24.8334H40.3586C39.174 24.8334 38.915 25.4775 38.7743 26.2142L37.327 34.2394C37.2048 34.7836 37.2789 35.7164 38.3485 35.7164H40.0625C41.0693 35.7164 41.2804 34.9094 41.4137 34.1506L42.1094 30.3008C42.2687 29.4235 42.402 28.9904 42.7018 28.6721C43.1645 28.1428 44.0751 27.9132 44.7193 28.4389C45.1264 28.7794 45.267 29.3199 45.1708 30.0824Z" fill="black"/>
<path d="M44.4786 34.2394L45.1708 30.0824C45.267 29.3199 45.1263 28.7794 44.7193 28.4389C44.0751 27.9132 43.1645 28.1427 42.7018 28.6721C42.4019 28.9904 42.2686 29.4235 42.1094 30.3008L41.4136 34.1505C41.2803 34.9094 41.0693 35.7164 40.0625 35.7164H38.3485C37.2789 35.7164 37.2048 34.7835 37.3269 34.2394L38.7743 26.2141C38.915 25.4775 39.174 24.8334 40.3586 24.8334H41.5876C42.5388 24.8334 43.1089 25.1814 42.8092 26.5288L42.6795 27.1951C43.3348 25.8514 44.9488 24.8297 46.3665 24.8297C47.4399 24.8297 47.9322 25.0185 48.5282 25.5552C49.5203 26.4436 49.7054 27.7763 49.4832 28.8312L48.4949 34.1469C48.358 34.9501 48.147 35.7164 47.1771 35.7164H45.4706C44.7266 35.7164 44.3305 35.1722 44.4786 34.2394Z" fill="white"/>
</g>
</g>
</g>
<defs>
<clipPath id="clip0_1939_2778">
<rect width="60" height="60" fill="white"/>
</clipPath>
<clipPath id="clip1_1939_2778">
<rect width="60" height="60" fill="white"/>
</clipPath>
<clipPath id="clip2_1939_2778">
<rect width="43.1287" height="22.1119" fill="white" transform="translate(8.43579 18.9441)"/>
</clipPath>
</defs>
</svg>
