<svg width="64" height="64" viewBox="0 0 64 64" xmlns="http://www.w3.org/2000/svg">
  <defs>
    <linearGradient id="wc-crest" x1="6" y1="4" x2="58" y2="60" gradientUnits="userSpaceOnUse">
      <stop offset="0" stop-color="#FFEFAE"/>
      <stop offset="0.45" stop-color="#E8B736"/>
      <stop offset="1" stop-color="#7A5512"/>
    </linearGradient>
    <radialGradient id="wc-crest-inner" cx="32" cy="22" r="28" gradientUnits="userSpaceOnUse">
      <stop offset="0" stop-color="#FFE9A8" stop-opacity="0.8"/>
      <stop offset="1" stop-color="#FFE9A8" stop-opacity="0"/>
    </radialGradient>
  </defs>
  <!-- Shield: same geometry as header crest, scaled 64x64 (header was 4..36 → here 6..58) -->
  <path d="M6 10 L32 4 L58 10 L58 34 C58 47.5 46 56 32 60 C18 56 6 47.5 6 34 Z" fill="url(#wc-crest)"/>
  <path d="M6 10 L32 4 L58 10 L58 34 C58 47.5 46 56 32 60 C18 56 6 47.5 6 34 Z" fill="url(#wc-crest-inner)"/>
  <path d="M8 11.4 L32 6 L56 11.4 L56 33.6 C56 45.2 44.8 53.4 32 57.2 C19.2 53.4 8 45.2 8 33.6 Z" fill="none" stroke="#5A3F0E" stroke-width="0.7" opacity="0.55"/>
  <!-- Italic serif W, same style as header monogram -->
  <text x="32" y="40" font-family="Georgia, 'Times New Roman', serif" font-size="36" font-weight="700" font-style="italic" text-anchor="middle" fill="#1A1308" letter-spacing="-1">W</text>
</svg>
