<svg width="101" height="36" viewBox="0 0 101 36" fill="none" xmlns="http://www.w3.org/2000/svg">
<path d="M12.9543 14.2989C13.2654 12.7436 12.6959 11.6537 11.6802 10.9114C10.7173 10.2633 9.52542 10.1808 8.27484 10.8112L2.97304 13.1737C1.65787 13.7746 1.07074 15.3358 1.65787 16.6672C2.245 17.9987 3.79502 18.5937 5.11018 17.9987L5.82061 17.6747L4.68158 23.9136C4.3528 25.7812 5.56817 27.3365 7.218 27.6546C8.96765 27.9846 10.6527 26.8299 10.9463 25.0742L12.9543 14.2989Z" fill="white"/>
<path d="M46.8847 5.44423C46.8847 7.17041 45.4872 8.57255 43.7669 8.57255C42.0466 8.57255 40.6491 7.17629 40.6491 5.44423C40.6491 3.71806 42.0466 2.31592 43.7669 2.31592C45.4872 2.31592 46.8847 3.71806 46.8847 5.44423Z" fill="white"/>
<path d="M14.8156 14.7407C15.2149 12.2663 14.4046 11.2118 13.7118 10.3811C14.7079 10.3811 15.7039 10.3929 16.7003 10.3929C17.8746 10.3929 18.356 10.9113 18.403 12.3783L18.7142 20.2079L22.2017 11.5947C22.5246 10.7994 23.1294 10.3929 24.1686 10.3929H26.7931C27.6914 10.3929 28.4664 10.9349 28.5192 12.5609L28.8363 20.202L32.3062 11.6359C32.6879 10.7169 33.3279 10.387 34.2908 10.387H36.8801C38.2716 10.387 38.5943 11.6654 38.0366 12.991L32.8933 25.7752C32.3884 27.0183 31.9128 27.7135 30.7679 27.7135H26.7402C25.4485 27.7135 24.7322 26.8769 24.7088 25.463L24.4328 19.0885L21.7379 25.7635C21.2858 26.8475 20.8337 27.7076 19.7123 27.7076H16.1778C14.7686 27.7076 13.9702 26.9535 13.929 25.2804L13.7294 20.5791L14.8156 14.7407Z" fill="white"/>
<path d="M43.9431 25.2097C43.7201 26.5352 43.3383 27.7076 41.7824 27.7076H39.0172C37.696 27.7076 37.2321 26.7002 37.4553 25.41L39.7276 12.5845C39.9565 11.2177 40.5378 10.3811 42.2406 10.3811H44.3246C46.092 10.3811 46.5441 11.2295 46.1447 13.0852L43.9431 25.2097Z" fill="white"/>
<path d="M58.4156 18.7409L57.3179 25.3569C57.0829 26.8416 57.7112 27.7076 58.8913 27.7076H61.5979C63.1363 27.7076 63.4708 26.4881 63.688 25.2097L65.2556 16.7497C65.6079 15.0706 65.3144 12.9497 63.7411 11.5358C62.7957 10.6816 62.0148 10.3811 60.312 10.3811C58.0632 10.3811 55.5035 12.0071 54.4644 14.1457L54.6698 13.0852C55.1455 10.9408 54.2411 10.387 52.7323 10.387H50.7831C48.9042 10.387 48.4933 11.4121 48.2701 12.5845L45.9743 25.3569C45.7807 26.223 45.898 27.7076 47.5947 27.7076H50.3131C51.9103 27.7076 52.2449 26.4233 52.4563 25.2156L53.56 19.0885C53.8125 17.6923 54.0239 17.003 54.4996 16.4963C55.2335 15.6539 56.6778 15.2886 57.6995 16.1252C58.3453 16.6672 58.5682 17.5273 58.4156 18.7409Z" fill="white"/>
<path fill-rule="evenodd" clip-rule="evenodd" d="M72.5351 10.3869C70.9633 10.3869 69.6199 11.5259 69.3537 13.0844L67.5043 23.91C67.1654 25.8944 68.6844 27.7078 70.6857 27.7078H92.3881C93.9564 27.7078 95.2977 26.5739 95.5679 25.0199L97.451 14.1944C97.7966 12.2071 96.2764 10.3869 94.2712 10.3869H72.5351ZM82.0166 15.6733L81.9695 15.9506L78.0336 22.4095H75.9124L74.1816 15.9506L74.2182 15.6733H75.9807L77.1595 20.5817L79.9978 15.6733H82.0166ZM84.1741 15.6733L83.0297 22.4095H81.1851L82.3295 15.6733H84.1741ZM89.2347 15.6733C90.6249 15.6733 91.8409 16.611 91.6174 18.1275C91.4027 19.5104 90.4548 20.2018 88.7743 20.2018H86.1611L85.7847 22.4095H83.9401L85.0845 15.6733H89.2347Z" fill="white"/>
<path d="M89.7772 18.0145C89.7041 18.4458 89.3909 18.6614 88.8373 18.6614H86.4191L86.6814 17.2135H89.0589C89.5706 17.2135 89.8539 17.4939 89.7772 18.0145Z" fill="white"/>
<path d="M81.9696 15.9506L82.0167 15.6733H79.9978L77.1595 20.5817L75.9808 15.6733H74.2182L74.1816 15.9506L75.9124 22.4095H78.0336L81.9696 15.9506Z" fill="black"/>
<path d="M83.0297 22.4095L84.1741 15.6733H82.3295L81.1851 22.4095H83.0297Z" fill="black"/>
<path fill-rule="evenodd" clip-rule="evenodd" d="M88.7744 20.2018C90.4549 20.2018 91.4028 19.5104 91.6174 18.1275C91.841 16.611 90.625 15.6733 89.2348 15.6733H85.0845L83.9401 22.4095H85.7847L86.1612 20.2018H88.7744ZM88.8373 18.6615C89.3909 18.6615 89.7041 18.4459 89.7773 18.0146C89.8539 17.494 89.5706 17.2136 89.059 17.2136H86.6814L86.4191 18.6615H88.8373Z" fill="black"/>
</svg>
