<?xml version='1.0' encoding='utf-8'?>
<svg xmlns="http://www.w3.org/2000/svg" width="250" height="51" viewBox="0 0 250 51" fill="none">
<path d="M81.1585 24.4459H80.9721L77.159 9.82593H72.3292L68.4992 24.4119H68.3128L64.9742 9.82593H59.0428L65.4996 32.0789H70.6514L74.6509 18.5979H74.8204L78.8198 32.0789H83.9886L90.4284 9.82593H84.514L81.1585 24.4459Z" fill="white"/>
<path d="M94.6312 8.38098C93.8856 8.38098 93.2416 8.63598 92.7162 9.12898C92.1909 9.62198 91.9197 10.217 91.9197 10.914C91.9197 11.611 92.1909 12.223 92.7162 12.716C93.2416 13.209 93.8856 13.464 94.6312 13.464C95.3769 13.464 96.0209 13.209 96.5462 12.716C97.0716 12.223 97.3427 11.628 97.3427 10.914C97.3427 10.2 97.0716 9.62198 96.5462 9.12898C96.0209 8.63598 95.3769 8.38098 94.6312 8.38098Z" fill="white"/>
<path d="M97.2919 15.402H91.9875V32.096H97.2919V15.402Z" fill="white"/>
<path d="M113.307 15.963C112.442 15.436 111.426 15.181 110.256 15.181C109.087 15.181 107.968 15.47 107.087 16.048C106.206 16.626 105.562 17.442 105.206 18.462H105.02V15.402H99.9864V32.096H105.291V22.576C105.291 21.93 105.409 21.403 105.647 20.944C105.867 20.502 106.206 20.145 106.63 19.907C107.053 19.669 107.545 19.55 108.104 19.55C108.934 19.55 109.595 19.805 110.07 20.332C110.544 20.859 110.782 21.573 110.765 22.508V32.096H116.069V21.454C116.069 20.196 115.832 19.108 115.357 18.173C114.883 17.238 114.205 16.507 113.341 15.98L113.307 15.963Z" fill="white"/>
<path d="M131.982 15.963C131.118 15.436 130.101 15.181 128.932 15.181C127.762 15.181 126.644 15.47 125.763 16.048C124.881 16.626 124.237 17.442 123.881 18.462H123.695V15.402H118.662V32.096H123.966V22.576C123.966 21.93 124.085 21.403 124.322 20.944C124.542 20.502 124.881 20.145 125.305 19.907C125.729 19.669 126.22 19.55 126.779 19.55C127.61 19.55 128.271 19.805 128.745 20.332C129.22 20.859 129.457 21.573 129.44 22.508V32.096H134.744V21.454C134.744 20.196 134.507 19.108 134.033 18.173C133.558 17.238 132.88 16.507 132.016 15.98L131.982 15.963Z" fill="white"/>
<path d="M150.725 17.374C150.014 16.643 149.166 16.099 148.183 15.742C147.2 15.368 146.116 15.181 144.929 15.181C143.252 15.181 141.794 15.538 140.557 16.269C139.32 16.983 138.371 18.003 137.693 19.295C137.015 20.587 136.676 22.1 136.676 23.817C136.676 25.534 137.015 27.115 137.693 28.407C138.371 29.699 139.337 30.685 140.591 31.382C141.845 32.079 143.353 32.419 145.099 32.419C146.556 32.419 147.827 32.198 148.929 31.756C150.03 31.314 150.929 30.685 151.607 29.869C152.284 29.053 152.725 28.118 152.928 27.013L148.065 26.877C147.929 27.251 147.726 27.557 147.455 27.812C147.183 28.067 146.844 28.254 146.472 28.39C146.082 28.526 145.658 28.594 145.201 28.594C144.523 28.594 143.93 28.458 143.438 28.169C142.947 27.88 142.574 27.489 142.303 26.979C142.032 26.469 141.896 25.874 141.896 25.194V25.058H152.996V23.732C152.996 22.355 152.793 21.148 152.403 20.094C152.013 19.04 151.454 18.139 150.742 17.408L150.725 17.374ZM141.913 21.93C141.947 21.386 142.065 20.91 142.337 20.485C142.608 20.026 142.981 19.669 143.455 19.414C143.93 19.142 144.455 19.023 145.048 19.023C145.641 19.023 146.15 19.142 146.607 19.397C147.065 19.652 147.421 19.992 147.675 20.434C147.929 20.876 148.065 21.386 148.082 21.947H141.93L141.913 21.93Z" fill="white"/>
<path d="M164.232 15.164C163.317 15.164 162.52 15.436 161.842 15.98C161.165 16.524 160.656 17.34 160.351 18.445H160.182V15.402H155.03V32.096H160.334V23.035C160.334 22.372 160.47 21.794 160.758 21.284C161.046 20.791 161.436 20.4 161.944 20.128C162.453 19.856 163.012 19.703 163.639 19.703C163.961 19.703 164.317 19.737 164.723 19.771C165.13 19.822 165.469 19.89 165.706 19.975V15.351C165.486 15.283 165.232 15.232 164.978 15.198C164.723 15.164 164.469 15.147 164.215 15.147L164.232 15.164Z" fill="white"/>
<path d="M180.925 23.8C180.111 23.069 178.874 22.525 177.213 22.219L174.01 21.607C173.315 21.471 172.824 21.267 172.553 21.029C172.282 20.791 172.146 20.502 172.163 20.179C172.163 19.754 172.366 19.431 172.79 19.176C173.214 18.921 173.739 18.802 174.349 18.802C174.824 18.802 175.23 18.887 175.586 19.04C175.942 19.193 176.23 19.414 176.468 19.686C176.688 19.958 176.823 20.264 176.874 20.621L181.738 20.485C181.602 18.836 180.891 17.527 179.586 16.592C178.281 15.64 176.518 15.181 174.264 15.181C172.756 15.181 171.451 15.385 170.35 15.81C169.248 16.235 168.384 16.83 167.791 17.629C167.198 18.428 166.893 19.38 166.91 20.485C166.91 21.76 167.299 22.814 168.13 23.63C168.96 24.446 170.18 25.007 171.858 25.313L174.756 25.874C175.451 26.01 175.959 26.18 176.281 26.418C176.603 26.639 176.773 26.945 176.773 27.319C176.773 27.744 176.552 28.084 176.129 28.322C175.705 28.56 175.146 28.696 174.468 28.696C173.722 28.696 173.095 28.543 172.621 28.22C172.129 27.897 171.841 27.438 171.722 26.826L166.486 26.962C166.689 28.611 167.469 29.937 168.825 30.906C170.197 31.892 172.061 32.385 174.434 32.385C175.925 32.385 177.247 32.147 178.4 31.688C179.552 31.212 180.467 30.566 181.128 29.716C181.789 28.866 182.128 27.88 182.145 26.724C182.145 25.5 181.721 24.531 180.908 23.783L180.925 23.8Z" fill="white"/>
<path d="M204.176 17.901H198.753C198.685 17.34 198.532 16.847 198.312 16.388C198.092 15.946 197.787 15.555 197.431 15.232C197.058 14.909 196.634 14.671 196.126 14.501C195.618 14.331 195.075 14.246 194.465 14.246C193.397 14.246 192.465 14.518 191.686 15.045C190.906 15.572 190.313 16.337 189.906 17.34C189.5 18.343 189.279 19.55 189.279 20.961C189.279 22.372 189.483 23.681 189.906 24.667C190.33 25.67 190.923 26.418 191.686 26.911C192.448 27.421 193.364 27.659 194.414 27.659C195.007 27.659 195.55 27.591 196.041 27.438C196.533 27.285 196.956 27.064 197.329 26.775C197.702 26.486 198.007 26.129 198.244 25.704C198.482 25.279 198.651 24.803 198.753 24.259L204.176 24.293C204.091 25.279 203.803 26.248 203.328 27.2C202.854 28.152 202.21 29.036 201.379 29.818C200.549 30.6 199.549 31.229 198.38 31.688C197.194 32.147 195.855 32.385 194.33 32.385C192.33 32.385 190.517 31.943 188.94 31.059C187.347 30.175 186.11 28.883 185.195 27.166C184.28 25.466 183.823 23.392 183.823 20.944C183.823 18.496 184.297 16.422 185.229 14.722C186.161 13.022 187.415 11.73 189.008 10.846C190.601 9.96196 192.381 9.51996 194.347 9.51996C195.685 9.51996 196.939 9.70696 198.075 10.081C199.21 10.455 200.227 10.999 201.091 11.713C201.956 12.427 202.667 13.294 203.21 14.331C203.752 15.368 204.091 16.558 204.21 17.884L204.176 17.901Z" fill="#FAE487"/>
<path d="M211.853 9.82593V32.0789H206.548V9.82593H211.853Z" fill="#FAE487"/>
<path d="M225.275 24.888V15.402H230.562V32.096H225.512V28.985H225.342C224.969 30.005 224.342 30.821 223.461 31.416C222.58 32.011 221.512 32.317 220.258 32.317C219.123 32.317 218.123 32.062 217.276 31.535C216.411 31.008 215.75 30.277 215.276 29.342C214.801 28.407 214.564 27.302 214.547 26.044V15.402H219.852V24.99C219.852 25.891 220.089 26.605 220.563 27.132C221.038 27.659 221.665 27.914 222.478 27.914C223.004 27.914 223.478 27.795 223.902 27.557C224.325 27.319 224.664 26.979 224.902 26.52C225.139 26.061 225.275 25.517 225.275 24.871V24.888Z" fill="#FAE487"/>
<path d="M233.257 32.0789V9.82593H238.561V18.2409H238.663C238.883 17.7309 239.188 17.2379 239.595 16.7789C240.001 16.3199 240.51 15.9289 241.137 15.6229C241.764 15.3169 242.509 15.1639 243.391 15.1639C244.543 15.1639 245.628 15.4699 246.628 16.0819C247.627 16.6939 248.458 17.6289 249.068 18.9039C249.695 20.1789 250 21.7939 250 23.7489C250 25.7039 249.695 27.2169 249.102 28.4919C248.509 29.7669 247.712 30.7189 246.695 31.3649C245.679 32.0109 244.577 32.3169 243.34 32.3169C242.509 32.3169 241.781 32.1809 241.154 31.9089C240.544 31.6369 240.018 31.2629 239.612 30.8209C239.188 30.3789 238.883 29.8859 238.646 29.3759H238.476V32.0789H233.24H233.257ZM238.459 23.7319C238.459 24.6329 238.578 25.4149 238.815 26.0779C239.052 26.7409 239.408 27.2679 239.866 27.6249C240.323 27.9819 240.883 28.1689 241.51 28.1689C242.137 28.1689 242.713 27.9819 243.17 27.6249C243.628 27.2509 243.967 26.7409 244.204 26.0779C244.441 25.4149 244.56 24.6329 244.56 23.7319C244.56 22.8309 244.441 22.0489 244.204 21.4029C243.967 20.7399 243.628 20.2299 243.17 19.8729C242.713 19.5159 242.171 19.3289 241.51 19.3289C240.849 19.3289 240.306 19.4989 239.849 19.8559C239.391 20.2129 239.052 20.7229 238.798 21.3859C238.544 22.0489 238.442 22.8309 238.442 23.7489L238.459 23.7319Z" fill="#FAE487"/>
<path d="M250 40.579H59.0428V42.619H250V40.579Z" fill="url(#paint0_linear_301_25)"/>
<path d="M0 5.746L22.9121 0L45.8243 5.746V28.016C45.8243 39.797 35.08 47.838 22.9121 51C10.7443 47.838 0 39.797 0 28.016V5.746Z" fill="url(#paint1_linear_301_25)"/>
<path d="M0 5.746L22.9121 0L45.8243 5.746V28.016C45.8243 39.797 35.08 47.838 22.9121 51C10.7443 47.838 0 39.797 0 28.016V5.746Z" fill="url(#paint2_radial_301_25)"/>
<path d="M22.9122 48.994H22.8444C17.1333 47.396 11.9136 44.625 8.18534 41.174C3.94862 37.264 1.71164 32.623 1.71164 27.727V6.81704L1.93195 6.76604L22.9122 1.42804H22.9799L44.1127 6.81704V27.727C44.1127 32.623 41.8757 37.264 37.639 41.174C33.9107 44.625 28.708 47.396 22.9799 48.977H22.9122V48.994ZM2.28783 7.25904V27.727C2.28783 34.612 7.69388 44.166 22.9122 48.399C38.1304 44.149 43.5365 34.612 43.5365 27.727V7.25904L22.9122 2.02304L2.28783 7.25904Z" fill="#5A3F0E"/>
<path d="M38.6727 15.6229C38.4016 15.6569 38.1304 15.7079 37.8593 15.7929C37.5881 15.8779 37.317 15.9969 37.0458 16.1499C36.6391 16.3709 36.351 16.6259 36.1815 16.8979C36.0121 17.1699 35.8595 17.5099 35.707 17.9009C35.2156 19.2439 34.4699 21.3859 33.47 24.3439C32.4532 27.3019 31.4195 30.3789 30.3179 33.5579H27.6573L22.7257 19.6009L18.2687 33.5579H15.6081C14.1337 29.2739 13.0152 25.9589 12.2356 23.6469C11.4561 21.3349 10.7951 19.3799 10.2528 17.8159C10.0834 17.3399 9.89696 16.9999 9.67665 16.7789C9.45634 16.5579 9.18519 16.3369 8.8632 16.1159C8.62595 15.9629 8.37174 15.8439 8.1006 15.7589C7.82945 15.6909 7.5244 15.6229 7.16852 15.5889V14.5519H17.1672V15.5549C16.574 15.6229 16.1334 15.6909 15.8453 15.7589C15.5572 15.8269 15.32 15.8949 15.1674 15.9629C15.0149 16.0309 14.9132 16.1159 14.8793 16.1839C14.8454 16.2689 14.8285 16.3369 14.8285 16.3879C14.8285 16.5069 14.8285 16.6259 14.8793 16.7449C14.9132 16.8639 14.9471 16.9999 14.981 17.1359C15.1844 17.8329 15.625 19.1249 16.269 21.0459C16.913 22.9669 17.7095 25.3639 18.6415 28.2029L22.9121 14.5179H25.7084L30.6399 28.6279C31.3686 26.3669 31.9448 24.4969 32.3854 23.0689C32.8261 21.6239 33.1819 20.3999 33.487 19.3799C33.6565 18.7509 33.809 18.2239 33.9107 17.7989C34.0123 17.3739 34.0632 17.0169 34.0632 16.6939C34.0632 16.5069 33.9784 16.3539 33.809 16.2179C33.6395 16.0819 33.4022 15.9799 33.1142 15.8779C32.8769 15.7929 32.5549 15.7419 32.1651 15.6909C31.7753 15.6399 31.4364 15.6059 31.1483 15.5719V14.5179H38.6897V15.5719L38.6727 15.6229Z" fill="#1A1308"/>
<defs>
<linearGradient id="paint0_linear_301_25" x1="59.0428" y1="41.599" x2="250" y2="41.599" gradientUnits="userSpaceOnUse">
<stop stop-color="#D6A21E" stop-opacity="0"/>
<stop offset="0.5" stop-color="#FFE57A"/>
<stop offset="1" stop-color="#D6A21E" stop-opacity="0"/>
</linearGradient>
<linearGradient id="paint1_linear_301_25" x1="2.32172" y1="-2.788" x2="48.3064" y2="48.783" gradientUnits="userSpaceOnUse">
<stop stop-color="#FFEFAE"/>
<stop offset="0.45" stop-color="#E8B736"/>
<stop offset="1" stop-color="#7A5512"/>
</linearGradient>
<radialGradient id="paint2_radial_301_25" cx="0" cy="0" r="1" gradientUnits="userSpaceOnUse" gradientTransform="translate(22.8572 15.9297) scale(25.7104 25.791)">
<stop stop-color="#FFE9A8" stop-opacity="0.8"/>
<stop offset="1" stop-color="#FFE9A8" stop-opacity="0"/>
</radialGradient>
</defs>
</svg>